<?xml version="1.0" encoding="UTF-8"?>
<svg xmlns="http://www.w3.org/2000/svg" id="a" viewBox="0 0 1587 421">
  <defs>
    <style>.b{fill:#0d58c6;}</style>
  </defs>
  <path class="b" d="M129.89,120.4h34.51l-6.11,48.88h-34.15l-8.99,74.04c-1.8,12.58,2.88,17.25,11.14,17.25,5.75,0,11.5-1.08,18.33-2.88l-3.23,48.88c-16.17,3.59-27.68,5.39-42.05,5.39-45.65,0-54.99-23.36-49.6-67.57l9.35-75.48h-21.93l4.67-35.94,22.64-8.27,4.67-37.38,66.14-11.14-5.39,44.21Z"></path>
  <path class="b" d="M309.25,120.76l-13.66,60.74c-5.39-2.52-10.42-3.59-16.17-3.59-14.74,0-26.6,5.75-36.3,23.36l-12.94,106.39h-65.06l23-187.27h54.27l-1.08,8.27-6.47,23h4.67c13.3-23.36,31.63-35.22,51.4-35.22,7.55,0,12.94,1.44,18.33,4.31Z"></path>
  <path class="b" d="M464.53,307.67h-48.16l-4.31-22.64h-2.16c-10.42,17.97-30.91,26.96-51.04,26.96-38.82,0-53.2-23-47.45-69.73l15.1-121.85h64.7l-13.66,112.14c-2.16,16.17,.72,24.8,11.86,24.8,7.19,0,13.3-5.03,17.61-12.22l15.46-124.72h64.7l-22.64,187.27Z"></path>
  <path class="b" d="M720.09,260.94c3.23,0,5.75-.72,8.63-1.44v47.8c-11.86,2.52-24.08,4.31-35.58,4.31-40.26,0-53.56-19.41-47.45-69.01l18.33-149.88c-10.78-1.08-20.49-1.8-29.47-1.8-22.64,0-32.71,5.39-34.51,20.13l-1.08,9.35h30.55l-6.11,48.52h-30.55l-25.16,212.07-67.21,7.19,27.32-219.26h-21.57l4.67-39.18,22.29-5.75,1.08-8.99c6.47-51.4,46.73-72.97,108.19-72.97,12.58,0,31.63,1.44,46.37,3.95l46.37-3.95-24.8,202.36c-1.8,12.22,2.52,16.53,9.7,16.53Z"></path>
  <path class="b" d="M874.65,138.01h.72l8.63-17.61h44.93l-23.36,187.27h-53.91l.72-7.19,7.91-23h-5.03c-10.78,20.85-30.55,34.51-54.99,34.51-40.62,0-60.75-33.79-53.2-97.41,8.63-70.45,36.3-98.84,78.72-98.84,26.24,0,42.41,12.22,48.88,22.28Zm-58.95,70.09c-4.67,38.46,.36,53.2,12.94,53.2,8.27,0,15.81-6.47,19.77-15.1l9.35-73.68c-3.23-7.19-8.63-12.58-17.61-12.58-12.94,0-20.13,12.58-24.44,48.16Z"></path>
  <path class="b" d="M1039.27,120.4h34.51l-6.11,48.88h-34.15l-8.99,74.04c-1.8,12.58,2.88,17.25,11.14,17.25,5.75,0,11.5-1.08,18.33-2.88l-3.23,48.88c-16.17,3.59-27.68,5.39-42.05,5.39-45.65,0-54.99-23.36-49.6-67.57l9.35-75.48h-21.93l4.67-35.94,22.65-8.27,4.67-37.38,66.14-11.14-5.39,44.21Z"></path>
  <path class="b" d="M1139.56,307.67h-65.06l22.64-187.27h65.06l-22.64,187.27Zm32.35-239.02c-2.16,19.05-20.85,34.15-39.54,34.15s-33.79-15.1-31.63-34.15c2.16-18.69,20.13-34.15,39.9-34.15,18.69,0,33.79,15.46,31.27,34.15Z"></path>
  <path class="b" d="M1350.9,212.42c-8.99,75.84-46.37,99.56-98.84,99.56-49.6,0-83.39-24.08-74.4-99.56,8.99-73.32,45.29-96.69,98.49-96.69s83.75,24.08,74.76,96.69Zm-105.31-.72c-5.03,40.26-.72,58.23,11.86,58.23s21.57-17.97,26.6-58.23c4.67-38.46,0-53.56-12.94-53.56s-20.85,15.1-25.52,53.56Z"></path>
  <path class="b" d="M1543.92,188.33l-14.38,119.33h-65.06l13.66-112.86c2.52-17.61-1.8-24.44-11.86-24.44-7.55,0-15.1,5.03-20.13,12.22l-15.1,125.08h-65.06l23-187.27h54.27l-.72,6.83-6.83,22.64h4.67c12.94-19.77,33.07-34.15,58.23-34.15,35.94,0,51.4,24.08,45.29,72.61Z"></path>
</svg>
